<svg xmlns="http://www.w3.org/2000/svg" width="61.729" height="41.669" viewBox="0 0 61.729 41.669">
  <path id="Icon_zocial-email" data-name="Icon zocial-email" d="M.072,42.046V7.759q0-.06.179-1.131L20.43,23.89.31,43.236a5.045,5.045,0,0,1-.238-1.191Zm2.679-37.8a2.565,2.565,0,0,1,1.012-.179H58.11a3.371,3.371,0,0,1,1.071.179L38.943,21.569l-2.679,2.143-5.3,4.345-5.3-4.345L22.99,21.569Zm.06,41.311,20.3-19.465,7.857,6.369,7.857-6.369,20.3,19.465a2.858,2.858,0,0,1-1.012.179H3.763a2.7,2.7,0,0,1-.952-.179ZM41.5,23.89,61.622,6.628A3.553,3.553,0,0,1,61.8,7.759V42.046a4.563,4.563,0,0,1-.179,1.191Z" transform="translate(-0.072 -4.068)" fill="#678a74"/>
</svg>
