<svg xmlns="http://www.w3.org/2000/svg" width="45.116" height="45.116" viewBox="0 0 45.116 45.116">
  <path id="Icon_awesome-check-circle" data-name="Icon awesome-check-circle" d="M45.679,23.121A22.558,22.558,0,1,1,23.121.563,22.558,22.558,0,0,1,45.679,23.121ZM20.511,35.065,37.248,18.328a1.455,1.455,0,0,0,0-2.058L35.19,14.212a1.455,1.455,0,0,0-2.058,0L19.482,27.861,13.11,21.489a1.455,1.455,0,0,0-2.058,0L8.993,23.547a1.455,1.455,0,0,0,0,2.058l9.46,9.46a1.455,1.455,0,0,0,2.058,0Z" transform="translate(-0.563 -0.563)" fill="#f5b971"/>
</svg>
