<svg xmlns="http://www.w3.org/2000/svg" width="45.888" height="45.878" viewBox="0 0 45.888 45.878">
  <path id="Icon_awesome-instagram" data-name="Icon awesome-instagram" d="M22.944,13.414A11.763,11.763,0,1,0,34.706,25.177,11.744,11.744,0,0,0,22.944,13.414Zm0,19.41a7.647,7.647,0,1,1,7.647-7.647,7.661,7.661,0,0,1-7.647,7.647ZM37.931,12.933a2.744,2.744,0,1,1-2.744-2.744A2.737,2.737,0,0,1,37.931,12.933Zm7.79,2.785c-.174-3.675-1.013-6.931-3.706-9.613S36.078,2.583,32.4,2.4c-3.788-.215-15.141-.215-18.929,0-3.665.174-6.92,1.013-9.613,3.7S.34,12.032.156,15.707c-.215,3.788-.215,15.141,0,18.929.174,3.675,1.013,6.931,3.706,9.613S9.8,47.77,13.475,47.954c3.788.215,15.141.215,18.929,0,3.675-.174,6.931-1.013,9.613-3.706s3.522-5.938,3.706-9.613c.215-3.788.215-15.131,0-18.918ZM40.828,38.7a7.742,7.742,0,0,1-4.361,4.361c-3.02,1.2-10.186.921-13.523.921s-10.514.266-13.523-.921A7.742,7.742,0,0,1,5.06,38.7c-1.2-3.02-.921-10.186-.921-13.523s-.266-10.514.921-13.523A7.742,7.742,0,0,1,9.421,7.292c3.02-1.2,10.186-.921,13.523-.921s10.514-.266,13.523.921a7.742,7.742,0,0,1,4.361,4.361c1.2,3.02.921,10.186.921,13.523S42.026,35.69,40.828,38.7Z" transform="translate(0.005 -2.238)" fill="#678a74"/>
</svg>
