<svg xmlns="http://www.w3.org/2000/svg" width="41.668" height="41.668" viewBox="0 0 41.668 41.668">
  <path id="Icon_awesome-phone-alt" data-name="Icon awesome-phone-alt" d="M40.48,29.445l-9.115-3.906a1.953,1.953,0,0,0-2.279.562l-4.037,4.932A30.166,30.166,0,0,1,10.629,16.611l4.932-4.037a1.948,1.948,0,0,0,.562-2.279L12.216,1.181A1.966,1.966,0,0,0,9.978.05L1.514,2A1.953,1.953,0,0,0,0,3.906,37.758,37.758,0,0,0,37.763,41.669a1.953,1.953,0,0,0,1.9-1.514l1.953-8.464a1.977,1.977,0,0,0-1.14-2.246Z" transform="translate(0 0)" fill="#678a74"/>
</svg>
