<svg xmlns="http://www.w3.org/2000/svg" width="45.878" height="45.878" viewBox="0 0 45.878 45.878">
  <path id="Icon_awesome-pinterest" data-name="Icon awesome-pinterest" d="M45.878,23.5A22.942,22.942,0,0,1,16.15,45.414,25.785,25.785,0,0,0,19,39.4c.277-1.073,1.424-5.457,1.424-5.457.749,1.424,2.932,2.636,5.254,2.636,6.919,0,11.9-6.364,11.9-14.272,0-7.575-6.188-13.245-14.143-13.245-9.9,0-15.16,6.641-15.16,13.884,0,3.367,1.794,7.557,4.653,8.889.435.2.666.111.768-.305.074-.314.462-1.878.638-2.6a.687.687,0,0,0-.157-.657,9.034,9.034,0,0,1-1.693-5.235,9.927,9.927,0,0,1,10.36-9.953c5.633,0,9.583,3.839,9.583,9.333,0,6.206-3.136,10.508-7.215,10.508a3.327,3.327,0,0,1-3.395-4.144c.647-2.729,1.9-5.67,1.9-7.64,0-1.757-.943-3.228-2.9-3.228-2.3,0-4.153,2.377-4.153,5.568a8.265,8.265,0,0,0,.684,3.4s-2.266,9.6-2.682,11.4a22.2,22.2,0,0,0-.083,6.586A22.941,22.941,0,1,1,45.878,23.5Z" transform="translate(0 -0.563)" fill="#678a74"/>
</svg>
