<svg xmlns="http://www.w3.org/2000/svg" width="142.849" height="125" viewBox="0 0 142.849 125">
  <path id="Icon_awesome-react" data-name="Icon awesome-react" d="M116.679,42.759q-2.26-.753-4.52-1.423c.251-1.032.474-2.065.7-3.1,3.432-16.629,1.172-29.993-6.445-34.4C99.074-.375,87.1,4.005,75,14.551c-1.2,1.032-2.372,2.12-3.488,3.209-.753-.725-1.535-1.451-2.316-2.148C56.5,4.34,43.776-.4,36.159,4.033c-7.31,4.241-9.486,16.824-6.417,32.56.307,1.562.642,3.1,1.032,4.659-1.786.5-3.543,1.06-5.189,1.646C10.686,48.06,0,56.207,0,64.632c0,8.7,11.383,17.438,26.868,22.739,1.256.419,2.511.837,3.794,1.2-.419,1.674-.781,3.32-1.116,5.022-2.93,15.485-.642,27.761,6.668,31.974,7.533,4.352,20.2-.112,32.532-10.909.977-.865,1.953-1.758,2.93-2.706,1.228,1.2,2.511,2.344,3.794,3.46,11.941,10.267,23.743,14.424,31.025,10.212,7.533-4.352,9.988-17.549,6.808-33.62q-.377-1.841-.837-3.767c.893-.251,1.758-.53,2.623-.809,16.1-5.329,27.761-13.95,27.761-22.795,0-8.454-10.993-16.656-26.17-21.874ZM78.93,19.071C89.309,10.032,98.99,6.488,103.4,9.027c4.715,2.706,6.529,13.643,3.571,28.012-.2.949-.391,1.869-.642,2.79a142.828,142.828,0,0,0-18.777-2.957A140.966,140.966,0,0,0,75.666,22.057c1.088-1.032,2.148-2.009,3.264-2.985ZM46.649,79.113c1.423,2.427,2.874,4.855,4.408,7.226a126.341,126.341,0,0,1-12.946-2.093A130.332,130.332,0,0,1,42.66,71.831c1.283,2.455,2.595,4.883,3.99,7.282ZM38.2,45.549c4.018-.893,8.286-1.618,12.723-2.176-1.479,2.316-2.93,4.687-4.3,7.087-1.367,2.372-2.706,4.8-3.962,7.254C40.9,53.556,39.423,49.483,38.2,45.549ZM45.84,64.772c1.841-3.85,3.85-7.617,5.971-11.328s4.408-7.31,6.808-10.853c4.185-.307,8.454-.474,12.806-.474s8.649.167,12.806.474q3.557,5.273,6.78,10.8T97.065,64.66q-2.8,5.775-6.026,11.383c-2.12,3.711-4.38,7.31-6.752,10.881-4.157.307-8.482.446-12.862.446s-8.621-.14-12.723-.391Q55.061,81.666,51.839,76.1c-2.148-3.711-4.129-7.477-6-11.328ZM96.228,79.057c1.423-2.455,2.762-4.938,4.073-7.449a129.516,129.516,0,0,1,4.715,12.36A122.549,122.549,0,0,1,91.9,86.2C93.41,83.856,94.833,81.456,96.228,79.057Zm4.018-21.344C98.934,55.258,97.6,52.8,96.2,50.4q-2.051-3.557-4.269-7.031A128.4,128.4,0,0,1,104.738,45.6a123.478,123.478,0,0,1-4.492,12.109ZM71.481,26.325a122.516,122.516,0,0,1,8.258,9.988c-5.524-.251-11.076-.251-16.6,0C65.873,32.715,68.691,29.366,71.481,26.325ZM39.116,9.222C43.8,6.488,54.21,10.394,65.175,20.1c.7.614,1.4,1.283,2.12,1.953A141.749,141.749,0,0,0,55.326,36.872a147.071,147.071,0,0,0-18.749,2.9c-.363-1.423-.67-2.874-.977-4.325C32.978,21.945,34.708,11.761,39.116,9.222ZM32.281,82.768c-1.172-.335-2.316-.7-3.46-1.088-5.943-1.869-12.695-4.827-17.577-8.7A12.519,12.519,0,0,1,6,64.632C6,59.527,14.815,53,27.538,48.562c1.59-.558,3.209-1.06,4.827-1.535A148.358,148.358,0,0,0,39.2,64.772a152.51,152.51,0,0,0-6.919,18ZM64.812,110.11a51.067,51.067,0,0,1-15.736,9.849,12.349,12.349,0,0,1-9.849.363c-4.436-2.567-6.278-12.416-3.767-25.668.307-1.562.642-3.125,1.032-4.659a139.578,139.578,0,0,0,18.944,2.734,147.236,147.236,0,0,0,12.053,14.9C66.6,108.492,65.705,109.329,64.812,110.11Zm6.836-6.78c-2.846-3.069-5.692-6.473-8.454-10.128,2.678.112,5.441.167,8.231.167,2.874,0,5.692-.056,8.482-.2a120.318,120.318,0,0,1-8.258,10.156Zm36.466,8.37a12.4,12.4,0,0,1-4.6,8.733c-4.436,2.567-13.894-.781-24.106-9.542-1.172-1-2.344-2.093-3.543-3.209A138.02,138.02,0,0,0,87.635,92.728a137.54,137.54,0,0,0,19.028-2.93c.279,1.144.53,2.288.753,3.4A50.86,50.86,0,0,1,108.114,111.7Zm5.078-29.993c-.781.251-1.562.5-2.372.725a141.731,141.731,0,0,0-7.115-17.8,141.024,141.024,0,0,0,6.836-17.549c1.451.419,2.846.865,4.185,1.311,13,4.464,22.125,11.1,22.125,16.182,0,5.468-9.737,12.527-23.659,17.131ZM71.425,77.522A12.778,12.778,0,1,0,58.646,64.744,12.776,12.776,0,0,0,71.425,77.522Z" transform="translate(0 -2.251)" fill="#59b3fc"/>
</svg>
